<?xml version="1.0" standalone="no"?>
<!DOCTYPE svg PUBLIC "-//W3C//DTD SVG 20010904//EN"
 "http://www.w3.org/TR/2001/REC-SVG-20010904/DTD/svg10.dtd">
<svg version="1.0" xmlns="http://www.w3.org/2000/svg"
 width="96.000000pt" height="96.000000pt" viewBox="0 0 96.000000 96.000000"
 preserveAspectRatio="xMidYMid meet">
<metadata>
Created by potrace 1.11, written by Peter Selinger 2001-2013
</metadata>
<g transform="translate(0.000000,96.000000) scale(0.100000,-0.100000)"
fill="#000000" stroke="none">
<path d="M0 480 l0 -480 480 0 480 0 0 480 0 480 -480 0 -480 0 0 -480z m720
340 c0 -53 -2 -60 -20 -60 -18 0 -20 -7 -20 -60 0 -53 -2 -60 -20 -60 -18 0
-20 -7 -20 -60 0 -53 2 -60 20 -60 17 0 20 -7 20 -40 0 -33 3 -40 20 -40 18 0
20 -7 20 -60 0 -53 2 -60 20 -60 17 0 20 -7 20 -40 l0 -40 -140 0 c-133 0
-140 1 -140 20 0 13 7 20 20 20 13 0 20 7 20 20 0 13 7 20 20 20 13 0 20 7 20
20 0 17 -7 20 -40 20 -33 0 -40 3 -40 20 0 13 -7 20 -20 20 -17 0 -20 7 -20
40 0 33 -3 40 -20 40 -17 0 -20 -7 -20 -40 0 -33 -3 -40 -20 -40 -13 0 -20 -7
-20 -20 0 -13 -7 -20 -20 -20 -17 0 -20 -7 -20 -40 l0 -40 40 0 c33 0 40 -3
40 -20 0 -19 -7 -20 -100 -20 l-100 0 0 40 c0 33 3 40 20 40 18 0 20 7 20 60
0 53 2 60 20 60 17 0 20 7 20 40 0 33 3 40 20 40 17 0 20 7 20 40 0 33 3 40
20 40 17 0 20 7 20 40 0 33 3 40 20 40 13 0 20 7 20 20 0 17 7 20 40 20 33 0
40 3 40 20 0 17 7 20 40 20 33 0 40 3 40 20 0 13 7 20 20 20 13 0 20 7 20 20
0 17 7 20 40 20 33 0 40 3 40 20 0 13 7 20 20 20 18 0 20 -7 20 -60z m160
-700 l0 -40 -400 0 -400 0 0 40 0 40 400 0 400 0 0 -40z"/>
<path d="M480 660 c0 -13 -7 -20 -20 -20 -13 0 -20 -7 -20 -20 0 -13 7 -20 20
-20 13 0 20 -7 20 -20 0 -13 7 -20 20 -20 13 0 20 7 20 20 0 13 7 20 20 20 13
0 20 7 20 20 0 13 -7 20 -20 20 -13 0 -20 7 -20 20 0 13 -7 20 -20 20 -13 0
-20 -7 -20 -20z"/>
</g>
</svg>
